<?xml version="1.0" encoding="UTF-8"?>
<svg version="1.1" xmlns="http://www.w3.org/2000/svg" width="432" height="443">
<path d="M0 0 C142.56 0 285.12 0 432 0 C432 146.19 432 292.38 432 443 C289.44 443 146.88 443 0 443 C0 296.81 0 150.62 0 0 Z " fill="#FDFEFE" transform="translate(0,0)"/>
<path d="M0 0 C0 83.82 0 167.64 0 254 C-36.3 254 -72.6 254 -110 254 C-110 205.82 -110 157.64 -110 108 C-108.515 107.505 -108.515 107.505 -107 107 C-106.731875 106.4225 -106.46375 105.845 -106.1875 105.25 C-104.7846796 102.59202451 -102.90970195 101.13709863 -100.58203125 99.28515625 C-97.39182446 96.69360555 -94.62764595 93.81593973 -92.125 90.5625 C-89.91098741 87.89266129 -87.55604562 85.81143401 -84.87890625 83.625 C-82.4638557 81.53630763 -80.24896797 79.26366705 -78 77 C-76.82763304 75.82495023 -75.65502737 74.65013859 -74.48223877 73.47550964 C-73.11477587 72.10502187 -71.74732462 70.73452248 -70.37988281 69.36401367 C-62.7629192 61.73073986 -55.1434303 54.09999185 -47.52249527 46.4706831 C-42.91325461 41.85620003 -38.30496235 37.24077764 -33.69873047 32.62329102 C-29.24072363 28.15446347 -24.78031788 23.68804363 -20.31819916 19.22332191 C-18.61558002 17.51884913 -16.91384405 15.81349368 -15.21298981 14.10725975 C-12.84513533 11.73220443 -10.47422925 9.36023782 -8.10253906 6.98901367 C-7.03970451 5.92078621 -7.03970451 5.92078621 -5.95539856 4.83097839 C-5.31335983 4.19031433 -4.67132111 3.54965027 -4.00982666 2.88957214 C-3.44941807 2.32824176 -2.88900948 1.76691137 -2.3116188 1.18857098 C-1 0 -1 0 0 0 Z " fill="#0166FE" transform="translate(139,33)"/>
<path d="M0 0 C36.33094629 -0.32242427 36.33094629 -0.32242427 51.55664062 -0.390625 C62.0694094 -0.43809318 72.5816652 -0.49389157 83.09399414 -0.60351562 C90.75018972 -0.68331738 98.40596915 -0.7348806 106.06256908 -0.75270796 C110.11599849 -0.76312752 114.1682375 -0.78756693 118.22128487 -0.84584045 C122.03917674 -0.90028644 125.85539225 -0.91686529 129.67363548 -0.90486145 C131.07210032 -0.90705612 132.47062318 -0.92288926 133.86875153 -0.9536438 C144.41201956 -1.17411928 144.41201956 -1.17411928 148.25361443 1.66627502 C150.02675425 3.68942673 151.51554102 5.75965063 153 8 C154.64431761 9.68871998 156.31323978 11.35367212 158 13 C159.41657883 14.41171072 160.83166703 15.82491778 162.24580383 17.23907471 C163.95723959 18.94747437 165.66868102 20.65586835 167.38012695 22.36425781 C176.90940865 31.87703801 186.4359995 41.39250927 195.96119404 50.90938187 C201.7257906 56.66880601 207.49133335 62.42727722 213.2590332 68.18359375 C218.29994842 73.21456541 223.3391239 78.24727192 228.37618798 83.28209949 C231.04084717 85.94545246 233.7063868 88.60791092 236.37401772 91.26828766 C239.3410007 94.22726467 242.30409604 97.1901046 245.2668457 100.15332031 C246.15666138 101.03954071 247.04647705 101.92576111 247.96325684 102.83883667 C249.16405632 104.04169815 249.16405632 104.04169815 250.38911438 105.26885986 C251.0905573 105.96938099 251.79200022 106.66990211 252.51469898 107.39165115 C254 109 254 109 254 110 C170.18 110 86.36 110 0 110 C0 73.7 0 37.4 0 0 Z " fill="#0166FE" transform="translate(148,32)"/>
<path d="M0 0 C35.97 0 71.94 0 109 0 C110.93454564 34.67852189 110.93454564 34.67852189 111.34375 49.5546875 C111.62555185 59.71574909 111.95213589 69.85706547 112.62109375 80.00097656 C116.51731857 140.24681285 116.51731857 140.24681285 98.171875 161.4609375 C87.43655034 173.5261281 74.6109399 185.26503496 61 194 C60.34 194 59.68 194 59 194 C58.79375 194.556875 58.5875 195.11375 58.375 195.6875 C56.82702134 198.29091865 54.92265493 199.79396189 52.56640625 201.65625 C50.57295171 203.36634566 49.02496838 205.37455408 47.38978577 207.42051697 C45.84181827 209.17977256 44.17827117 210.63444074 42.38842773 212.14672852 C37.76124932 216.14918896 33.46113903 220.4297001 29.16015625 224.77734375 C28.35259384 225.58869278 27.54503143 226.40004181 26.71299744 227.23597717 C24.16037295 229.80072117 21.61104546 232.36870311 19.0625 234.9375 C15.68121105 238.34527177 12.29669646 241.74979143 8.91015625 245.15234375 C8.13108414 245.9397142 7.35201202 246.72708466 6.54933167 247.53831482 C5.83446091 248.2564888 5.11959015 248.97466278 4.38305664 249.71459961 C3.75210587 250.3507872 3.12115509 250.98697479 2.47108459 251.6424408 C1 253 1 253 0 253 C0 169.51 0 86.02 0 0 Z " fill="#0066FE" transform="translate(294,151)"/>
<path d="M0 0 C83.49 0 166.98 0 253 0 C253 35.97 253 71.94 253 109 C216.54814461 109.20151517 216.54814461 109.20151517 201.296875 109.24414062 C190.75768906 109.27383251 180.21870267 109.30877587 169.6796875 109.37719727 C162.00484532 109.42700017 154.33016471 109.45928334 146.65516543 109.47044247 C142.59041518 109.4769666 138.5261272 109.49232137 134.46152496 109.52865028 C130.63652477 109.56256103 126.81217771 109.57306322 122.98704147 109.56553841 C121.58253557 109.56691519 120.17800808 109.57687786 118.77363205 109.59602737 C116.8571626 109.62088013 114.94034353 109.61194826 113.02374268 109.60127258 C111.41429213 109.60818603 111.41429213 109.60818603 109.77232742 109.61523914 C106.03843074 108.78660708 105.12865671 107.08462184 103 104 C101.01739574 102.31267723 99.0167658 100.64633943 97 99 C93.6457286 95.73813853 90.4830921 92.34990208 87.36206055 88.8659668 C80.12640009 80.89775446 72.46343307 73.35119451 64.83609962 65.76093483 C62.1569934 63.09473444 59.48114883 60.42529754 56.80607605 57.75505066 C51.14437965 52.10469322 45.47872718 46.45831277 39.8125 40.8125 C33.20528567 34.22897466 26.59979778 27.64373553 19.99841881 21.05435753 C17.35683289 18.41927186 14.71226632 15.78720228 12.06758118 13.15522766 C10.465237 11.55651218 8.86303091 9.95765828 7.26098633 8.35864258 C6.520858 7.62368057 5.78072968 6.88871857 5.01817322 6.13148499 C4.3525235 5.46590576 3.68687378 4.80032654 3.00105286 4.11457825 C2.41801801 3.53376401 1.83498316 2.95294977 1.23428059 2.3545351 C0 1 0 1 0 0 Z " fill="#0065FE" transform="translate(31,296)"/>
<path d="M0 0 C-1 3 -1 3 -3 6 C-3 7.32 -3 8.64 -3 10 C-4.98 10.99 -4.98 10.99 -7 12 C-7.33 11.01 -7.66 10.02 -8 9 C-8.99 8.67 -9.98 8.34 -11 8 C-9.73861805 6.65772182 -8.46555441 5.32641323 -7.1875 4 C-6.47980469 3.2575 -5.77210938 2.515 -5.04296875 1.75 C-3 0 -3 0 0 0 Z " fill="#0D6AFE" transform="translate(138,36)"/>
<path d="M0 0 C0 3 0 3 -1.49609375 4.68359375 C-2.78763532 5.85039891 -4.07930147 7.01706617 -5.37109375 8.18359375 C-7.1332187 10.14855323 -7.59812994 11.42463556 -8 14 C-9.32 14 -10.64 14 -12 14 C-12 14.66 -12 15.32 -12 16 C-13.47695491 17.28430862 -14.95806138 18.56580708 -16.4921875 19.78125 C-18.13813095 21.06784671 -18.13813095 21.06784671 -20 23 C-20 20 -20 20 -18.1640625 17.82348633 C-17.32617188 17.00130615 -16.48828125 16.17912598 -15.625 15.33203125 C-14.72265625 14.43935547 -13.8203125 13.54667969 -12.890625 12.62695312 C-11.9272427 11.68863843 -10.96369892 10.7504895 -10 9.8125 C-9.03577654 8.86332231 -8.07222608 7.91346044 -7.109375 6.96289062 C-4.74613254 4.63509681 -2.37618518 2.31456867 0 0 Z " fill="#F4F6FE" transform="translate(403,296)"/>
<path d="M0 0 C0.66 0.66 1.32 1.32 2 2 C1.34 3.32 0.68 4.64 0 6 C-0.66 6 -1.32 6 -2 6 C-2.33 6.66 -2.66 7.32 -3 8 C-3 7.34 -3 6.68 -3 6 C-4.98491642 6.26676204 -4.98491642 6.26676204 -7 7 C-7.33 7.99 -7.66 8.98 -8 10 C-8.33 9.34 -8.66 8.68 -9 8 C-7.1875 5 -7.1875 5 -5 2 C-4.01 2 -3.02 2 -2 2 C-1.34 1.34 -0.68 0.68 0 0 Z " fill="#0D6CFE" transform="translate(39,134)"/>
<path d="M0 0 C1.65 0 3.3 0 5 0 C3.60667426 3.36720387 2.0210714 4.9859524 -1 7 C-1.5625 5.0625 -1.5625 5.0625 -2 3 C-1.67 2.67 -1.34 2.34 -1 2 C-0.67 1.34 -0.34 0.68 0 0 Z " fill="#166DFF" transform="translate(379,314)"/>
<path d="M0 0 C3.7952131 1.49097658 5.61042731 3.75700849 8 7 C4.36436591 7 2.87354245 6.17457267 0 4 C0 2.68 0 1.36 0 0 Z " fill="#0E6AFE" transform="translate(378,119)"/>
<path d="M0 0 C1.53445094 3.06890187 0.54984289 5.70094266 0 9 C-0.99 8.34 -1.98 7.68 -3 7 C-5.15274948 7.30840599 -5.15274948 7.30840599 -7 8 C-6.02133662 6.85373678 -5.04205413 5.70800212 -4.0625 4.5625 C-3.51722656 3.92441406 -2.97195312 3.28632812 -2.41015625 2.62890625 C-1.63204305 1.73008851 -0.84063472 0.84063472 0 0 Z " fill="#0C6AFE" transform="translate(109,62)"/>
<path d="M0 0 C2.63840764 1.03937271 3.54887645 2.4663835 5.0625 4.8125 C-0.47596154 4.19711538 -0.47596154 4.19711538 -2.8125 2.25 C-3.18375 1.775625 -3.555 1.30125 -3.9375 0.8125 C-1.9375 -0.1875 -1.9375 -0.1875 0 0 Z " fill="#0F6AFF" transform="translate(396.9375,137.1875)"/>
<path d="M0 0 C0.33 0.66 0.66 1.32 1 2 C1.66 2.33 2.32 2.66 3 3 C1.25 4.5625 1.25 4.5625 -1 6 C-3.25 5.6875 -3.25 5.6875 -5 5 C-3.35 3.35 -1.7 1.7 0 0 Z " fill="#0D6BFF" transform="translate(115,56)"/>
<path d="M0 0 C0.33 0.66 0.66 1.32 1 2 C1.99 2.33 2.98 2.66 4 3 C2.35 4.32 0.7 5.64 -1 7 C-1.33 6.34 -1.66 5.68 -2 5 C-2.66 4.67 -3.32 4.34 -4 4 C-2.68 2.68 -1.36 1.36 0 0 Z " fill="#106CFF" transform="translate(123,48)"/>
<path d="M0 0 C-1 3 -1 3 -3.0625 4.1875 C-3.701875 4.455625 -4.34125 4.72375 -5 5 C-5.33 3.35 -5.66 1.7 -6 0 C-3 -1 -3 -1 0 0 Z " fill="#126FFF" transform="translate(296,34)"/>
<path d="M0 0 C3.36720387 1.39332574 4.9859524 2.9789286 7 6 C6.01 6.33 5.02 6.66 4 7 C2 5.1875 2 5.1875 0 3 C0 2.01 0 1.02 0 0 Z " fill="#2778FF" transform="translate(121,385)"/>
</svg>
